<?xml version="1.0" encoding="iso-8859-1"?>

<!DOCTYPE svg PUBLIC "-//W3C//DTD SVG 1.1//EN" "http://www.w3.org/Graphics/SVG/1.1/DTD/svg11.dtd">
<!-- Uploaded to: SVG Repo, www.svgrepo.com, Generator: SVG Repo Mixer Tools -->
<svg height="800px" width="800px" version="1.1" id="_x36_" xmlns="http://www.w3.org/2000/svg" xmlns:xlink="http://www.w3.org/1999/xlink" 
	 viewBox="0 0 512 512"  xml:space="preserve">
<g>
	<g>
		<g>
			<path style="fill:#9E6458;" d="M362.724,258.882l-50.044,50.045l-5.591-5.921L210.78,201.06
				c-3.675-3.675-3.378-9.982,0.657-14.017l29.407-29.407c4.035-4.035,10.342-4.332,14.017-0.657l101.941,96.312L362.724,258.882z"
				/>
			<path style="fill:#B26E5D;" d="M501.549,390.544c0.119,0.119,0.246,0.229,0.369,0.352c14.386,14.386,13.241,38.859-2.56,54.66
				c-15.801,15.801-40.275,16.946-54.66,2.56c-0.123-0.123-0.233-0.25-0.352-0.369c-0.653-0.373-1.263-0.822-1.814-1.373
				L314.976,311.36l-2.297-2.433l50.044-50.045l2.433,2.297l135.019,127.55C500.726,389.281,501.171,389.896,501.549,390.544z"/>
			<path style="fill:#EBC880;" d="M270.393,136.571l-80.022,80.022c-2.52,2.52-6.604,2.52-9.124,0l-66.53-66.53
				c-2.519-2.52-2.519-6.604,0-9.124l80.022-80.022c2.52-2.52,6.604-2.52,9.124,0l66.53,66.53
				C272.912,129.966,272.912,134.051,270.393,136.571z"/>
			<polygon style="fill:#EBC880;" points="365.157,261.18 314.976,311.36 312.679,308.927 307.089,303.006 356.802,253.292 
				362.724,258.882 			"/>
			<g>
				<g>
					<path style="fill:#9E6458;" d="M143.058,244.467c2.44-17.092,15.937-30.589,33.032-33.032l-51.598-51.598
						c-2.443,17.095-15.94,30.592-33.032,33.032L143.058,244.467z"/>
					<path style="fill:#B26E5D;" d="M58.605,191.95l16.378-16.378c1.59-1.59,4.167-1.59,5.757,0l74.997,74.997
						c1.59,1.59,1.59,4.167,0,5.757l-16.378,16.378c-6.613,6.613-17.334,6.613-23.946,0l-56.808-56.808
						C51.992,209.284,51.992,198.563,58.605,191.95z"/>
					<path style="fill:#B26E5D;" d="M162.258,249.806l-16.378,16.378c-1.59,1.59-4.167,1.59-5.757,0l-74.997-74.997
						c-1.59-1.59-1.59-4.167,0-5.757l16.378-16.378c6.613-6.613,17.334-6.613,23.946,0l56.808,56.808
						C168.87,232.472,168.87,243.193,162.258,249.806z"/>
					<path style="fill:#BC9381;" d="M151.466,260.597L151.466,260.597c1.024-1.024,1.024-2.685,0-3.71l-77.045-77.045
						c-1.024-1.024-2.685-1.024-3.709,0h0c-1.866,1.866-1.866,4.892,0,6.758l73.997,73.997
						C146.574,262.463,149.6,262.463,151.466,260.597z"/>
				</g>
				<path style="fill:#B26E5D;" d="M108.924,141.631l0.897-0.897c0.842-0.842,2.208-0.842,3.05,0l77.704,77.704
					c0.842,0.842,0.842,2.208,0,3.05l-0.897,0.897c-3.503,3.503-9.183,3.503-12.687,0l-68.068-68.068
					C105.42,150.814,105.42,145.134,108.924,141.631z"/>
			</g>
			<g>
				<g>
					<path style="fill:#9E6458;" d="M246.515,37.815c-2.44,17.092-15.937,30.588-33.032,33.031l51.598,51.598
						c2.443-17.095,15.94-30.592,33.031-33.032L246.515,37.815z"/>
					<path style="fill:#B26E5D;" d="M245.595,4.959l-16.378,16.378c-1.59,1.59-1.59,4.167,0,5.757l74.997,74.997
						c1.59,1.59,4.167,1.59,5.757,0l16.378-16.378c6.613-6.613,6.613-17.334,0-23.946L269.542,4.959
						C262.929-1.653,252.208-1.653,245.595,4.959z"/>
					<path style="fill:#B26E5D;" d="M303.451,108.612l16.378-16.378c1.59-1.59,1.59-4.167,0-5.757L244.832,11.48
						c-1.59-1.59-4.167-1.59-5.757,0l-16.378,16.378c-6.613,6.613-6.613,17.334,0,23.947l56.808,56.808
						C286.117,115.225,296.839,115.225,303.451,108.612z"/>
					<path style="fill:#BC9381;" d="M314.243,97.821L314.243,97.821c-1.024,1.024-2.685,1.024-3.709,0l-77.045-77.045
						c-1.024-1.024-1.024-2.685,0-3.71l0,0c1.866-1.866,4.892-1.866,6.758,0l73.997,73.997
						C316.109,92.929,316.109,95.955,314.243,97.821z"/>
				</g>
				<path style="fill:#B26E5D;" d="M195.276,55.278l-0.897,0.897c-0.842,0.842-0.842,2.208,0,3.05l77.704,77.704
					c0.842,0.842,2.208,0.842,3.05,0l0.897-0.897c3.503-3.503,3.503-9.183,0-12.687l-68.068-68.068
					C204.46,51.775,198.78,51.775,195.276,55.278z"/>
			</g>
		</g>
		<path style="opacity:0.06;fill:#040000;" d="M245.595,4.96l-6.52,6.52l-9.858,9.858l-6.52,6.52
			c-6.613,6.613-6.613,17.334,0,23.947l10.302,10.302c-3.39,2.85-7.273,5.132-11.505,6.702l-13.53-13.53
			c-3.503-3.503-9.183-3.504-12.687,0l-0.897,0.897c-0.842,0.842-0.842,2.208,0,3.05l1.079,1.079
			c-0.25,0.186-0.493,0.385-0.72,0.612l-40.01,40.011l344.629,344.629c15.801-15.801,16.946-40.275,2.56-54.66
			c-0.123-0.123-0.25-0.233-0.369-0.352c-0.377-0.648-0.822-1.263-1.373-1.814L365.156,261.18l-2.433-2.297l-5.921-5.591
			L254.861,156.98c-0.861-0.861-1.869-1.495-2.955-1.923l18.486-18.486c0.227-0.227,0.426-0.47,0.611-0.72l1.079,1.079
			c0.842,0.842,2.208,0.842,3.05,0l0.897-0.897c3.503-3.503,3.503-9.183,0-12.687l-8.912-8.912c1.57-4.232,3.852-8.115,6.702-11.505
			l5.684,5.684c6.613,6.613,17.334,6.613,23.946,0l6.52-6.52l9.858-9.858l6.52-6.52c6.613-6.613,6.613-17.334,0-23.946
			L269.542,4.959C262.929-1.653,252.208-1.653,245.595,4.96z"/>
	</g>
	<g>
		<path style="fill:#E76C6F;" d="M187.324,451.629H51.249c-10.165,0-18.482-8.317-18.482-18.482v-77.367
			c0-10.165,8.317-18.482,18.482-18.482h136.075c10.165,0,18.482,8.317,18.482,18.482v77.367
			C205.806,443.312,197.489,451.629,187.324,451.629z"/>
		<path style="fill:#B26E5D;" d="M17.146,383.877H221.43c9.429,0,17.143,7.714,17.143,17.143v50.597c0,3.62-2.961,6.581-6.581,6.581
			H6.581c-3.62,0-6.581-2.961-6.581-6.581v-50.595C0,391.593,7.716,383.877,17.146,383.877z"/>
		<path style="opacity:0.1;fill:#040000;" d="M221.43,383.877h-15.624v-28.097c0-10.165-8.317-18.482-18.482-18.482h-68.037v120.9
			h112.706c3.62,0,6.581-2.961,6.581-6.581v-50.597C238.573,391.592,230.859,383.877,221.43,383.877z"/>
	</g>
</g>
</svg>