<?xml version="1.0" encoding="iso-8859-1"?>

<!DOCTYPE svg PUBLIC "-//W3C//DTD SVG 1.1//EN" "http://www.w3.org/Graphics/SVG/1.1/DTD/svg11.dtd">
<!-- Uploaded to: SVG Repo, www.svgrepo.com, Generator: SVG Repo Mixer Tools -->
<svg height="800px" width="800px" version="1.1" id="_x35_" xmlns="http://www.w3.org/2000/svg" xmlns:xlink="http://www.w3.org/1999/xlink" 
	 viewBox="0 0 512 512"  xml:space="preserve">
<g>
	<path style="fill:#F0EFEF;" d="M251.159,405.005l-87.631-0.328l-20.349-0.082l-20.267-0.082l-87.631-0.246
		c0,0,0.657-1.969,2.051-5.744c1.231-3.528,2.872-8.615,4.923-15.344c8.451-28.8,22.974-87.631,31.918-179.118
		c2.462-25.6,2.954-47.672,2.708-64.738c-0.082-8.205-0.41-15.262-0.82-21.005c-0.246-5.415-0.657-9.682-0.903-12.718
		c-0.328-3.528-0.656-5.333-0.656-5.333L105.6,89.354l18.626-6.482l18.954,0.082l21.743,0.082l17.641,6.318l31.836,11.405
		c0,0-0.082,0.82-0.246,2.461v0.082c0,0,0,0,0,0.082c-0.328,2.708-0.902,7.631-1.313,14.523c-0.082,1.149-0.164,2.38-0.246,3.692
		c-0.164,1.313-0.246,2.79-0.328,4.267c0,1.805-0.082,3.692-0.164,5.662c-0.082,1.887-0.164,3.856-0.246,5.907v0.41
		c-0.082,2.215-0.082,4.431-0.082,6.81c-0.082,2.461-0.082,4.841-0.082,7.385c0,15.015,0.574,32.656,2.298,52.595
		c0.328,3.528,0.656,6.974,0.985,10.339c0.328,3.364,0.656,6.728,0.985,10.01c0.328,3.364,0.656,6.728,1.067,10.01
		c0.738,5.907,1.395,11.733,2.051,17.395c0.492,3.692,0.903,7.303,1.395,10.831c0.984,7.138,2.051,14.03,3.036,20.595
		c0.574,3.774,1.067,7.549,1.641,11.241c0.82,5.087,1.723,10.092,2.544,14.769c0.328,1.887,0.657,3.692,0.985,5.497
		c0.328,1.559,0.657,3.118,0.902,4.595c0.575,2.708,1.067,5.416,1.559,7.959c0.574,2.872,1.067,5.497,1.641,8.205
		c0.985,4.759,1.969,9.272,2.954,13.456c0.082,0.574,0.246,1.149,0.329,1.723c0.082,0.574,0.246,1.149,0.328,1.641
		c0.82,3.2,1.477,6.154,2.133,9.108c0.574,2.215,1.067,4.349,1.559,6.318c0.574,2.051,1.067,3.938,1.559,5.907
		c0.902,3.2,1.723,6.072,2.544,8.862c0,0.082,0.082,0.082,0.082,0.082c0.246,0.985,0.492,1.887,0.738,2.789
		c1.067,3.857,2.133,7.057,2.954,9.682c0.246,1.066,0.657,1.969,0.821,2.789C250.256,402.871,251.159,405.005,251.159,405.005z"/>
	<path style="fill:#FFFFFF;" d="M261.579,401.149v6.81c0,0.82-0.082,1.641-0.164,2.379c-0.082,0.656-0.246,1.313-0.41,1.969
		c0,0.082-0.082,0.164-0.082,0.246c-0.164,0.738-0.41,1.477-0.738,2.133c0,0.082-0.082,0.164-0.082,0.246
		c-0.164,0.574-0.492,1.149-0.821,1.723c-3.036,5.579-8.943,9.353-15.754,9.353H42.831c-6.81,0-12.8-3.774-15.836-9.353
		c-0.738-1.395-1.313-2.79-1.641-4.349c-0.411-1.395-0.574-2.872-0.574-4.348v-6.81c0-8.041,5.251-14.851,12.471-17.149
		c1.641-0.492,3.282-0.82,5.006-0.82c0.164-0.082,0.41-0.082,0.574-0.082h201.354v0.082h0.082c1.559,0.082,3.036,0.246,4.513,0.738
		h0.082c0.902,0.328,1.723,0.657,2.626,1.067c1.723,0.821,3.282,1.887,4.595,3.282c0.492,0.41,0.985,0.902,1.313,1.395
		c0,0,0.082,0.082,0.164,0.164c0.246,0.328,0.492,0.574,0.738,0.984c0.985,1.395,1.723,2.954,2.298,4.513
		c0.246,0.739,0.492,1.477,0.574,2.215c0.082,0.328,0.164,0.657,0.164,0.985C261.497,399.343,261.579,400.246,261.579,401.149z"/>
	<path style="fill:#FFFFFF;" d="M221.866,81.477v33.805c0,1.067-0.164,2.298-0.328,3.282c0,0.41,0,0.82-0.082,1.23
		c0,0.493-0.082,0.821-0.164,1.231c-0.082,0.41-0.246,0.82-0.328,1.231c-0.082,0.41-0.246,0.82-0.328,1.23
		c-0.164,0.821-0.492,1.805-0.739,2.544c0,0.164-0.164,0.328-0.246,0.492c-0.082,0.164-0.164,0.411-0.246,0.574v0.328
		c-0.985,2.133-2.216,4.103-3.528,5.908c-0.574,0.739-1.067,1.395-1.723,2.051c0,0,0,0,0,0.082h-0.082
		c-0.657,0.82-1.395,1.477-2.215,2.051v0.082c-4.103,3.364-9.19,5.415-14.605,5.415H89.19c-4.431,0-8.697-1.313-12.308-3.692
		c-0.657-0.328-1.149-0.738-1.723-1.148c-6.482-5.169-10.584-13.456-10.584-22.893V81.477c0-15.261,11.077-27.733,24.615-27.733
		h108.061C210.708,53.743,221.866,66.215,221.866,81.477z"/>
	<path style="fill:#F0EFEF;" d="M232.287,57.026v33.641c0,1.067-0.082,1.969-0.164,2.872c0,0.656-0.082,1.313-0.246,1.969
		c-0.082,0.657-0.246,1.313-0.328,1.969c-0.492,2.216-1.23,4.267-2.133,6.154c-0.492,0.985-0.985,1.887-1.559,2.79
		c-0.246,0.492-0.574,0.985-0.821,1.313c-0.328,0.492-0.656,0.82-0.985,1.313c-0.574,0.739-1.231,1.559-1.887,2.216
		c-0.082,0-0.164,0.082-0.164,0.164c-0.738,0.657-1.395,1.23-2.133,1.887l-0.082,0.082c-2.625,2.215-5.661,3.692-8.943,4.513
		c-1.641,0.41-3.364,0.574-5.169,0.574H78.687c-0.903,0-1.723-0.082-2.626-0.164c-4.267-0.492-8.123-2.297-11.487-4.841
		c0-0.082-0.082-0.082-0.082-0.082c-6.318-5.087-10.42-13.374-10.42-22.728V57.026c0-15.261,11.077-27.816,24.615-27.816h128.984
		C221.21,29.21,232.287,41.764,232.287,57.026z"/>
	<path style="fill:#FFFFFF;" d="M247.877,8.041v73.272c0,4.431-3.2,8.041-7.138,8.041h-195.2c-3.856,0-7.056-3.61-7.056-8.041V8.041
		c0-4.513,3.2-8.041,7.056-8.041h85.826v21.826h23.631V0h85.744C244.677,0,247.877,3.528,247.877,8.041z"/>
	<path style="fill:#FFFFFF;" d="M286.359,487.138v6.81c0,1.641-0.329,3.118-0.821,4.595c-0.164,0.738-0.492,1.477-0.902,2.133
		c0,0.082-0.082,0.164-0.082,0.246c-0.164,0.574-0.574,1.149-0.985,1.723c-3.692,5.579-10.831,9.354-19.036,9.354H21.825
		c-1.969,0-3.938-0.246-5.743-0.657c-5.826-1.313-10.667-4.513-13.374-8.697c-1.477-2.215-2.38-4.677-2.626-7.303
		C0,494.851,0,494.441,0,493.949v-6.81c0-4.923,2.379-9.272,6.072-12.472c0.082,0.329,0.082,0.739,0.164,1.149
		c1.23,8.452,4.923,14.688,9.19,14.688h255.671c1.149,0,2.133-0.411,3.118-1.231c0.492-0.328,0.985-0.82,1.477-1.395
		c0.903-1.067,1.723-2.544,2.38-4.185c1.067-2.461,1.887-5.579,2.297-8.944c0.328,0.328,0.656,0.574,0.902,0.903
		c0,0,0.164,0.082,0.246,0.164c0.246,0.328,0.574,0.574,0.902,0.985c1.149,1.395,2.051,2.954,2.708,4.513
		c0.328,0.738,0.657,1.477,0.739,2.215c0.082,0.328,0.164,0.656,0.164,0.984C286.277,485.333,286.359,486.236,286.359,487.138z"/>
	<path style="fill:#F0EFEF;" d="M280.779,469.087c0,1.97-0.164,3.857-0.41,5.661c-0.41,3.364-1.23,6.482-2.297,8.944
		c-0.657,1.641-1.477,3.118-2.38,4.185c-0.492,0.574-0.985,1.067-1.477,1.395c-0.984,0.82-1.969,1.231-3.118,1.231H15.426
		c-4.267,0-7.959-6.236-9.19-14.688c-0.082-0.41-0.082-0.82-0.164-1.149c-0.246-1.805-0.41-3.61-0.41-5.579l2.789-35.364
		c0-11.733,4.349-21.415,9.682-21.415h248.861c1.313,0,2.626,0.574,3.775,1.723c1.805,1.559,3.282,4.266,4.348,7.713
		c0.656,2.297,1.231,4.923,1.477,7.631c0.164,1.395,0.246,2.872,0.246,4.349L280.779,469.087z"/>
	<path style="opacity:0.1;fill:#040000;" d="M286.359,487.138v6.81c0,1.641-0.329,3.118-0.821,4.595
		c-0.164,0.738-0.492,1.477-0.902,2.133c0,0.082-0.082,0.164-0.082,0.246c-0.164,0.574-0.574,1.149-0.985,1.723
		c-3.692,5.579-10.831,9.354-19.036,9.354H143.179V21.826h11.815V0h85.744c3.938,0,7.138,3.528,7.138,8.041v73.272
		c0,4.431-3.2,8.041-7.138,8.041h-8.451v1.313c0,1.067-0.082,1.969-0.164,2.872c0,0.656-0.082,1.313-0.246,1.969
		c-0.082,0.657-0.246,1.313-0.328,1.969c-0.492,2.216-1.23,4.267-2.133,6.154c-0.492,0.985-0.985,1.887-1.559,2.79
		c-0.246,0.492-0.574,0.985-0.821,1.313c-0.328,0.492-0.656,0.82-0.985,1.313c-0.574,0.739-1.231,1.559-1.887,2.216
		c-0.082,0-0.164,0.082-0.164,0.164c-0.738,0.657-1.395,1.23-2.133,1.887l-0.082,0.082v1.887c0,1.067-0.082,2.298-0.246,3.282
		c0,0.41,0,0.82-0.082,1.23c-0.082,0.493-0.164,0.821-0.246,1.231c-0.082,0.41-0.164,0.82-0.246,1.231
		c-0.082,0.41-0.246,0.82-0.328,1.23c-0.246,0.821-0.492,1.805-0.821,2.544c0,0.164-0.082,0.328-0.164,0.492
		c-0.082,0.164-0.164,0.411-0.246,0.574c-0.082,0.082-0.082,0.164-0.082,0.328c-0.985,2.133-2.215,4.103-3.528,5.908
		c-0.492,0.739-1.067,1.395-1.723,2.051c0,0,0,0,0,0.082c-0.657,0.738-1.477,1.313-2.215,1.969v0.41
		c-0.082,2.133-0.164,4.431-0.164,6.81c-0.082,2.461-0.082,4.841-0.082,7.385c0,15.015,0.574,32.656,2.38,52.595
		c0.328,3.528,0.656,6.974,0.985,10.339c0.328,3.364,0.656,6.728,0.985,10.01c0.328,3.364,0.656,6.728,1.067,10.01
		c0.656,5.907,1.313,11.733,2.051,17.395c0.492,3.692,0.903,7.303,1.395,10.831c0.984,7.138,1.969,14.03,2.954,20.595
		c0.574,3.774,1.149,7.549,1.723,11.241c0.82,5.087,1.723,10.092,2.544,14.769c0.328,1.887,0.657,3.692,0.985,5.497
		c0.246,1.559,0.574,3.118,0.82,4.595c0.574,2.708,1.067,5.416,1.559,7.959c0.574,2.872,1.067,5.497,1.641,8.205
		c0.985,4.759,1.969,9.272,2.954,13.456c0.164,0.574,0.246,1.149,0.411,1.723c0.082,0.574,0.246,1.149,0.328,1.641
		c0.739,3.2,1.395,6.154,2.133,9.108c0.574,2.215,1.067,4.349,1.559,6.318c0.574,2.051,1.067,3.938,1.559,5.907
		c0.902,3.2,1.723,6.072,2.544,8.862v0.082h0.082c1.559,0.082,3.036,0.246,4.513,0.738h0.082c0.902,0.328,1.723,0.657,2.626,1.067
		c1.723,0.821,3.282,1.887,4.595,3.282c0.492,0.41,0.985,0.902,1.313,1.395c0,0,0.082,0.082,0.164,0.164
		c0.246,0.328,0.492,0.574,0.738,0.984c0.985,1.395,1.723,2.954,2.298,4.513c0.246,0.739,0.492,1.477,0.574,2.215
		c0.082,0.328,0.164,0.657,0.164,0.985c0.164,0.82,0.246,1.723,0.246,2.626v6.81c0,0.82-0.082,1.641-0.164,2.379
		c-0.164,0.656-0.328,1.313-0.492,1.969h6.072c1.313,0,2.626,0.574,3.775,1.723c1.723,1.641,3.282,4.348,4.348,7.713
		c0.656,2.297,1.231,4.923,1.477,7.631c0.082,1.395,0.164,2.872,0.164,4.349l3.939,35.364c0,1.97-0.082,3.857-0.328,5.661
		c0.328,0.328,0.656,0.574,0.902,0.903c0,0,0.164,0.082,0.246,0.164c0.246,0.328,0.574,0.574,0.902,0.985
		c1.149,1.395,2.051,2.954,2.708,4.513c0.328,0.738,0.657,1.477,0.739,2.215c0.082,0.328,0.164,0.656,0.164,0.984
		C286.277,485.333,286.359,486.236,286.359,487.138z"/>
</g>
</svg>